{"title":"ThASSit  Vol. #1 -&gt; #8   (8 movies) -  anal &amp; DP extravanganza","uid":4681910,"size":12750631408,"categoryP":"porn","categoryS":"movies","magnet":"?xt=urn:btih:7f046346ea5dbf8b8d6588299a4f79c99de713c8&amp;dn=ThASSit++Vol.+%231+-%3E+%238+++%288+movies%29+-++anal+%26+DP+extravanganza&amp;tr=udp%3A%2F%2Ftracker.openbittorrent.com%3A80&amp;tr=udp%3A%2F%2Fopen.demonii.com%3A1337&amp;tr=udp%3A%2F%2Ftracker.coppersurfer.tk%3A6969&amp;tr=udp%3A%2F%2Fexodus.desync.com%3A6969","seeders":1,"leechers":1,"uploader":"the_skid","files":11,"time":1233099680,"description":"ThASSit  Vol. #1 -&gt; #8   (8 movies) -  anal &amp; DP extravanganza\n\n\n\n\n\n\n\nscreens (DVD-covers):\n &lt;a href=&quot;\nhttp://4tpb.blogbugs.org/6253292/ThASSit---screens.html&quot; rel=&quot;nofollow&quot; target=&quot;_NEW&quot;&gt;\nhttp://4tpb.blogbugs.org/6253292/ThASSit---screens.html&lt;/a&gt;\n\n\n\n\n\n\n\nFiles included:\n\n\n\nThassit.1.NeverSayNeverAgainCrew/Thassit.1.NeverSayNeverAgainCrew.avi\t1.38 GB\n\nThassit.2.NeverSayNeverAgainCrew/Thassit.2.NeverSayNeverAgainCrew.avi\t1.36 GB\n\nThassit.3.NeverSayNeverAgain-XXX.DVDrip.Xvid/Thassit.3.NeverSayNeverAgain-XXX.DVDrip.Xvid.avi\t1.37 GB\n\nThassit.4/Thassit.4.avi\t1.70 GB\n\nThAssIt.5.[XXX].[Anal]/ThAssIt.5.[XXX].[Anal].avi\t1.96 GB\n\nThassit.6.XXX.DVDRiP.XviD-FagiNa/Thassit.Vol.6.XXX.DVDRiP.XviD-FagiNa.CD1.avi\t699.10 MB\nThassit.6.XXX.DVDRiP.XviD-FagiNa/Thassit.Vol.6.XXX.DVDRiP.XviD-FagiNa.CD2.avi\t700.20 MB\n\nThassit.7.XXX.DVDRip.XviD-VGN/Thassit.7.XXX.DVDRip.XviD.CD1-VGN.avi\t704.37 MB\nThassit.7.XXX.DVDRip.XviD-VGN/Thassit.7.XXX.DVDRip.XviD.CD2-VGN.avi\t694.98 MB\n\nThassit.8/Thassit 8 CD1.avi\t705.76 MB\nThassit.8/Thassit 8 CD2.avi\t693.77 MB\n\n\n\nVideo\nFormat                           : MPEG-4 Visual\nFormat profile                   : Streaming Video@L1\nFormat settings, BVOP            : Yes\nFormat settings, QPel            : No\nFormat settings, GMC             : No warppoints\nFormat settings, Matrix          : Default\nCodec ID                         : XVID\nCodec ID/Hint                    : XviD\nDuration                         : 1h 30mn\nBit rate                         : 935 Kbps\nWidth                            : 512 pixels\nHeight                           : 384 pixels\nDisplay aspect ratio             : 4/3\nFrame rate                       : 25.000 fps\nResolution                       : 24 bits\nColorimetry                      : 4:2:0\nScan type                        : Progressive\nBits/(Pixel*Frame)               : 0.190\nStream size                      : 603 MiB (87%)\nWriting library                  : XviD 1.1.0 (UTC 2005-11-22)\n\nAudio\nFormat                           : MPEG Audio\nFormat version                   : Version 1\nFormat profile                   : Layer 3\nCodec ID                         : 55\nCodec ID/Hint                    : MP3\nDuration                         : 1h 30mn\nBit rate mode                    : Variable\nBit rate                         : 128 Kbps\nChannel(s)                       : 2 channels\nSampling rate                    : 48.0 KHz\nResolution                       : 16 bits\nStream size                      : 82.4 MiB (12%)\nAlignment                        : Aligned on interleaves\nInterleave, duration             : 24 ms (0.60 video frame)\nInterleave, preload duration     : 504 ms\n\nGeneral\nComplete name                    : E:Thassit.PackThumbs.db\nFile size                        : 6.00 KiB\n\n\n\n\n\n\n\n\n\n\n\n\n.","torrent":{"xt":"urn:btih:7f046346ea5dbf8b8d6588299a4f79c99de713c8","amp;dn":"ThASSit++Vol.+%231+-%3E+%238+++%288+movies%29+-++anal+%26+DP+extravanganza","amp;tr":["udp%3A%2F%2Ftracker.openbittorrent.com%3A80","udp%3A%2F%2Fopen.demonii.com%3A1337","udp%3A%2F%2Ftracker.coppersurfer.tk%3A6969","udp%3A%2F%2Fexodus.desync.com%3A6969"],"infoHash":"7f046346ea5dbf8b8d6588299a4f79c99de713c8","infoHashBuffer":{"type":"Buffer","data":[127,4,99,70,234,93,191,139,141,101,136,41,154,79,121,201,157,231,19,200]},"announce":[],"urlList":[]}}